<svg version="1.1" xmlns="http://www.w3.org/2000/svg" xmlns:xlink="http://www.w3.org/1999/xlink" viewBox="0 0 226 226"><g fill="none" fill-rule="nonzero" stroke="none" stroke-width="1" stroke-linecap="butt" stroke-linejoin="miter" stroke-miterlimit="10" stroke-dasharray="" stroke-dashoffset="0" font-family="none" font-weight="none" font-size="none" text-anchor="none" style="mix-blend-mode: normal"><path d="M0,226v-226h226v226z" fill="none"></path><g fill="#ecf0f1"><path d="M113,9.04c-57.32716,0 -103.96,46.63284 -103.96,103.96c0,57.32716 46.63284,103.96 103.96,103.96c57.32716,0 103.96,-46.63284 103.96,-103.96c0,-57.32716 -46.63284,-103.96 -103.96,-103.96zM144.64,63.28c2.49504,0 4.52,2.02496 4.52,4.52c0,2.49504 -2.02496,4.52 -4.52,4.52c-2.49504,0 -4.52,-2.02496 -4.52,-4.52c0,-2.49504 2.02496,-4.52 4.52,-4.52zM131.08,49.72c2.49504,0 4.52,2.02496 4.52,4.52c0,2.49504 -2.02496,4.52 -4.52,4.52c-2.49504,0 -4.52,-2.02496 -4.52,-4.52c0,-2.49504 2.02496,-4.52 4.52,-4.52zM81.36,63.28c2.49504,0 4.52,2.02496 4.52,4.52c0,2.49504 -2.02496,4.52 -4.52,4.52c-2.49504,0 -4.52,-2.02496 -4.52,-4.52c0,-2.49504 2.02496,-4.52 4.52,-4.52zM76.84,81.36c2.49504,0 4.52,2.02496 4.52,4.52c0,2.49504 -2.02496,4.52 -4.52,4.52c-2.49504,0 -4.52,-2.02496 -4.52,-4.52c0,-2.49504 2.02496,-4.52 4.52,-4.52zM49.72,171.76c-2.49504,0 -4.52,-2.02496 -4.52,-4.52c0,-2.49504 2.02496,-4.52 4.52,-4.52c2.49504,0 4.52,2.02496 4.52,4.52c0,2.49504 -2.02496,4.52 -4.52,4.52zM61.51268,154.4484c-0.85428,1.1752 -2.21028,1.80348 -3.5708,1.80348c-0.9944,0 -1.9436,-0.31188 -2.75268,-0.9492c-1.9888,-1.48708 -2.35492,-4.3392 -0.8588,-6.32348c1.4916,-1.9888 4.3392,-2.35492 6.328,-0.8588c1.98428,1.53228 2.3956,4.33468 0.85428,6.328zM73.17428,143.1484c-0.8136,0.5876 -1.7628,0.85428 -2.6668,0.85428c-1.4012,0 -2.75268,-0.6328 -3.6612,-1.84868c-1.4916,-1.9888 -1.0396,-4.8364 0.9492,-6.328l0.0452,0.0452c1.9888,-1.4916 4.8364,-1.0848 6.2828,0.9492c1.4916,1.9888 1.04412,4.8364 -0.9492,6.328zM76.84,103.96c0,-2.49504 2.02496,-4.52 4.52,-4.52c2.49504,0 4.52,2.02496 4.52,4.52c0,2.49504 -2.02496,4.52 -4.52,4.52c-2.49504,0 -4.52,-2.02496 -4.52,-4.52zM85.88,135.6c-2.49504,0 -4.52,-2.02496 -4.52,-4.52c0,-2.49504 2.02496,-4.52 4.52,-4.52c2.49504,0 4.52,2.02496 4.52,4.52c0,2.49504 -2.02496,4.52 -4.52,4.52zM94.92,122.04c-2.49504,0 -4.52,-2.02496 -4.52,-4.52c0,-2.49504 2.02496,-4.52 4.52,-4.52c2.49504,0 4.52,2.02496 4.52,4.52c0,2.49504 -2.02496,4.52 -4.52,4.52zM94.92,58.76c-2.49504,0 -4.52,-2.02496 -4.52,-4.52c0,-2.49504 2.02496,-4.52 4.52,-4.52c2.49504,0 4.52,2.02496 4.52,4.52c0,2.49504 -2.02496,4.52 -4.52,4.52zM113,126.56c-2.49504,0 -4.52,-2.02496 -4.52,-4.52c0,-2.49504 2.02496,-4.52 4.52,-4.52c2.49504,0 4.52,2.02496 4.52,4.52c0,2.49504 -2.02496,4.52 -4.52,4.52zM113,54.24c-2.49504,0 -4.52,-2.02496 -4.52,-4.52c0,-2.49504 2.02496,-4.52 4.52,-4.52c2.49504,0 4.52,2.02496 4.52,4.52c0,2.49504 -2.02496,4.52 -4.52,4.52zM131.08,122.04c-2.49504,0 -4.52,-2.02496 -4.52,-4.52c0,-2.49504 2.02496,-4.52 4.52,-4.52c2.49504,0 4.52,2.02496 4.52,4.52c0,2.49504 -2.02496,4.52 -4.52,4.52zM140.12,135.6c-2.49504,0 -4.52,-2.02496 -4.52,-4.52c0,-2.49504 2.02496,-4.52 4.52,-4.52c2.49504,0 4.52,2.02496 4.52,4.52c0,2.49504 -2.02496,4.52 -4.52,4.52zM144.64,108.48c-2.49504,0 -4.52,-2.02496 -4.52,-4.52c0,-2.49504 2.02496,-4.52 4.52,-4.52c2.49504,0 4.52,2.02496 4.52,4.52c0,2.49504 -2.02496,4.52 -4.52,4.52zM144.64,85.88c0,-2.49504 2.02496,-4.52 4.52,-4.52c2.49504,0 4.52,2.02496 4.52,4.52c0,2.49504 -2.02496,4.52 -4.52,4.52c-2.49504,0 -4.52,-2.02496 -4.52,-4.52zM159.1492,142.154c-0.904,1.2204 -2.26,1.84868 -3.66572,1.84868c-0.89948,0 -1.84868,-0.2712 -2.6668,-0.85428c-1.98428,-1.4916 -2.4408,-4.294 -0.9492,-6.328c1.4464,-2.034 4.294,-2.4408 6.28732,-0.9492c2.02948,1.4464 2.486,4.294 0.9944,6.2828zM168.0536,156.25188c-1.356,0 -2.712,-0.6328 -3.5708,-1.80348c-1.5368,-1.9888 -1.13,-4.8364 0.8588,-6.328c1.98428,-1.4916 4.83188,-1.13 6.32348,0.8588c1.4916,1.98428 1.13,4.8364 -0.85428,6.32348c-0.81812,0.63732 -1.808,0.9492 -2.7572,0.9492zM176.28,171.76c-2.49504,0 -4.52,-2.02496 -4.52,-4.52c0,-2.49504 2.02496,-4.52 4.52,-4.52c2.49504,0 4.52,2.02496 4.52,4.52c0,2.49504 -2.02496,4.52 -4.52,4.52z"></path></g></g></svg>